<?xml version="1.0" encoding="UTF-8" standalone="no"?>
<!DOCTYPE svg PUBLIC "-//W3C//DTD SVG 1.1//EN" "http://www.w3.org/Graphics/SVG/1.1/DTD/svg11.dtd">
<svg width="199px" height="99px" version="1.1" xmlns="http://www.w3.org/2000/svg" xmlns:xlink="http://www.w3.org/1999/xlink" xml:space="preserve" style="fill-rule:evenodd;clip-rule:evenodd;stroke-linejoin:round;stroke-miterlimit:1.41421;">
    <g id="Group_2" transform="matrix(1,0,0,1,-0.199,-0.809)">
        <g id="Logo">
            <g id="Shape" transform="matrix(1,0,0,1,47.782,67.16)">
                <path d="M3.234,0L5.66,0L5.66,32.4L0,32.4L0,0L3.234,0Z" style="fill:rgb(248,210,0);fill-rule:nonzero;"/>
            </g>
            <g id="Shape-2" transform="matrix(1,0,0,1,47.782,34.598)">
                <path d="M3.234,0L5.66,0L5.66,32.562L0,32.562L0,0L3.234,0Z" style="fill:rgb(227,6,19);fill-rule:nonzero;"/>
            </g>
            <g id="Shape-3" transform="matrix(1,0,0,1,0.199,0.81)">
                <path d="M18.879,35.285C18.303,35.285 17.724,33.83 17.56,33.385L17.515,33.473C17.146,34.186 16.765,34.924 16.093,34.924C15.543,34.89 15.046,34.58 14.774,34.101C16.56,33.608 17.584,31.041 17.584,27.057C17.594,26.137 17.525,25.218 17.377,24.31L17.363,24.223L17.354,24.165L17.34,24.072C16.625,25.085 16.186,26.266 16.065,27.5C15.746,27.236 15.516,26.879 15.406,26.48C14.753,27.267 14.169,28.111 13.663,29L13.677,29C14.102,28.99 14.527,28.954 14.948,28.892C15.177,28.862 15.358,28.839 15.459,28.839C16.173,28.839 16.323,29.239 16.323,29.581C16.323,30.099 15.812,30.564 15.44,30.904L15.419,30.924C15.167,30.378 14.291,30.324 13.926,30.324C13.813,30.324 13.742,30.324 13.735,30.329L13.723,30.329C13.478,30.324 13.233,30.34 12.991,30.376C13.018,30.582 13.028,30.789 13.023,30.996L13.023,31.01C13.023,31.31 13.023,31.523 13.018,31.743C12.903,32.436 13.15,33.141 13.671,33.611L13.644,33.63C13.395,33.829 13.086,33.941 12.767,33.948C11.827,33.948 11.675,33.298 11.675,31.748C11.675,31.718 11.675,31.694 11.675,31.673L11.675,31.622C11.673,31.557 11.676,31.492 11.683,31.428C11.137,31.932 10.771,32.602 10.643,33.334L10.643,33.376C10.637,33.51 10.65,33.645 10.681,33.776C9.987,33.72 9.427,33.169 9.358,32.476C9.358,31.851 10.121,31.104 10.626,30.61L10.638,30.599L10.67,30.567L10.678,30.559L10.686,30.551L10.693,30.544C10.793,30.444 10.885,30.355 10.95,30.281L10.927,30.281L10.917,30.281L10.879,30.281L10.817,30.281C9.409,30.281 9.199,30.806 9.098,31.058C8.674,30.695 8.433,30.162 8.442,29.604C8.442,29.212 8.537,28.811 9.242,28.811C10.061,28.825 10.877,28.902 11.684,29.041L11.803,28.874L11.814,28.86C12.582,27.836 13.255,26.745 13.826,25.6C13.512,25.647 13.194,25.668 12.877,25.66C12.671,25.667 12.465,25.639 12.268,25.577C14.099,23.989 16.281,21.463 16.281,18.434C16.268,17.966 16.181,17.504 16.025,17.063L15.859,17.033L10.332,25.9C8.706,28.476 7.41,28.476 5.617,28.476L5.424,28.476C6.699,27.461 7.783,26.227 8.624,24.832L13.81,16.517C13.541,16.43 13.271,16.334 12.984,16.224L8.394,23.583C6.769,26.159 5.474,26.159 3.683,26.159L3.483,26.159C4.757,25.144 5.841,23.91 6.683,22.515L11.14,15.37C10.898,15.236 10.663,15.096 10.399,14.93L6.75,20.785C5.125,23.36 3.831,23.36 2.04,23.36L1.84,23.36C3.116,22.346 4.199,21.111 5.04,19.715L8.786,13.708C8.566,13.508 8.355,13.301 8.159,13.091L5.505,17.347C3.88,19.924 2.584,19.924 0.789,19.924L0.6,19.924C1.874,18.907 2.958,17.672 3.8,16.276L6.883,11.333C6.718,11.03 6.577,10.714 6.46,10.389L4.91,12.875C3.282,15.453 1.986,15.453 0.193,15.453L0,15.453C1.275,14.436 2.358,13.201 3.2,11.805L6.225,6.959C6.524,5.442 7.305,4.06 8.45,3.021C8.129,2.911 7.824,2.759 7.543,2.57L7.553,2.57C8.649,2.521 9.732,2.314 10.769,1.956L10.779,1.956C11.351,1.753 11.946,1.623 12.551,1.569C12.592,1.564 12.634,1.561 12.675,1.561C13.215,1.561 13.665,1.992 13.689,2.531C13.643,3.143 12.999,3.763 11.857,3.763C11.533,3.754 11.21,3.721 10.891,3.663C10.207,4.441 9.807,5.428 9.756,6.463C9.756,8.688 12.438,10.239 14.845,10.239C14.985,10.239 15.121,10.234 15.272,10.222C15.703,8.959 16.388,7.797 17.286,6.809L17.3,6.8C17.478,6.581 17.6,6.43 17.718,6.279C16.718,5.914 15.535,4.935 15.535,4.474C15.535,4.443 15.548,4.425 15.57,4.425C15.577,4.424 15.583,4.424 15.59,4.425C16.315,4.734 17.072,4.962 17.847,5.104C17.87,5.109 17.893,5.112 17.916,5.112C17.945,5.111 17.973,5.105 18,5.095C18.208,4.982 18.369,4.799 18.455,4.579L18.341,4.564L18.288,4.557L18.269,4.557C17.541,4.477 16.823,4.326 16.124,4.107C15.486,3.873 15.153,3.445 15.153,3.281C15.153,3.255 15.183,3.248 15.199,3.248C15.29,3.263 15.38,3.288 15.465,3.324L15.471,3.324C16.056,3.54 16.673,3.655 17.297,3.661C17.542,3.664 17.787,3.649 18.029,3.615L18.051,3.615L18.168,3.601L18.226,3.594C18.027,2.909 17.448,2.398 16.744,2.285C16.301,2.336 15.87,2.468 15.475,2.676C15.161,2.222 14.956,1.702 14.875,1.156C14.875,0.73 15.295,0.233 16.475,0.233C16.785,0.231 17.095,0.256 17.4,0.309C17.617,0.346 17.829,0.406 18.033,0.487C18.015,0.439 18.007,0.387 18.009,0.336C18.009,0.211 18.1,0 18.709,0C19.181,0.012 19.652,0.061 20.117,0.145L20.125,0.145C20.715,0.251 21.312,0.309 21.911,0.32C22.153,0.339 22.396,0.309 22.625,0.23C22.445,0.578 22.193,0.885 21.887,1.13L21.912,1.164C22.343,1.708 22.581,2.381 22.586,3.076C22.542,3.886 22.358,4.683 22.041,5.43C21.72,6.186 21.533,6.991 21.489,7.811C21.549,8.497 21.796,9.154 22.202,9.711C22.308,9.875 22.403,10.045 22.488,10.22C22.617,10.231 22.753,10.237 22.915,10.237C25.322,10.237 28.004,8.686 28.004,6.461C27.952,5.427 27.553,4.44 26.87,3.661C26.551,3.718 26.227,3.751 25.903,3.761C24.761,3.761 24.117,3.142 24.072,2.53C24.096,1.99 24.546,1.559 25.086,1.559C25.127,1.559 25.169,1.562 25.21,1.567C25.815,1.62 26.411,1.75 26.983,1.954L26.993,1.954C28.033,2.313 29.12,2.521 30.219,2.57C29.938,2.76 29.633,2.911 29.312,3.021C30.458,4.06 31.24,5.442 31.539,6.96L34.564,11.807C35.407,13.203 36.49,14.438 37.764,15.455L37.571,15.455C35.778,15.455 34.482,15.455 32.856,12.877L31.3,10.39C31.183,10.715 31.041,11.03 30.877,11.334L33.959,16.277C34.799,17.675 35.883,18.91 37.159,19.925L36.966,19.925C35.172,19.925 33.876,19.925 32.251,17.348L29.6,13.09C29.4,13.307 29.189,13.515 28.974,13.707L32.719,19.714C33.558,21.111 34.642,22.346 35.919,23.359L35.719,23.359C33.932,23.359 32.641,23.359 31.019,20.784L27.367,14.927C27.08,15.109 26.844,15.249 26.627,15.367L31.084,22.512C31.926,23.907 33.01,25.141 34.284,26.156L34.084,26.156C32.292,26.156 30.997,26.156 29.372,23.58L24.78,16.222C24.48,16.337 24.216,16.43 23.952,16.515L29.14,24.83C29.981,26.225 31.065,27.46 32.34,28.474L32.151,28.474C30.351,28.474 29.059,28.474 27.432,25.898L21.9,17.036L21.732,17.066C21.579,17.508 21.492,17.97 21.476,18.437C21.476,21.461 23.659,23.991 25.491,25.58C25.294,25.642 25.088,25.67 24.881,25.663C24.564,25.67 24.246,25.65 23.932,25.603C24.512,26.752 25.194,27.845 25.971,28.871L26.079,29.022C26.886,28.884 27.703,28.807 28.522,28.792C29.222,28.792 29.317,29.192 29.317,29.585C29.325,30.143 29.085,30.676 28.661,31.039C28.561,30.787 28.353,30.262 26.941,30.262L26.878,30.262L26.839,30.262L26.807,30.262C26.875,30.338 26.963,30.426 27.112,30.571L27.125,30.584C27.633,31.084 28.401,31.829 28.401,32.458C28.332,33.152 27.771,33.702 27.076,33.758C27.108,33.627 27.122,33.493 27.116,33.358L27.116,33.32C26.987,32.588 26.621,31.918 26.075,31.414C26.083,31.484 26.086,31.554 26.084,31.624C26.084,31.652 26.084,31.685 26.084,31.734C26.084,33.288 25.932,33.934 24.99,33.934C24.673,33.925 24.368,33.814 24.118,33.619L24.095,33.603L24.087,33.598C24.608,33.128 24.854,32.423 24.74,31.73C24.74,31.51 24.74,31.294 24.74,30.997C24.733,30.785 24.743,30.572 24.771,30.362C24.525,30.326 24.277,30.31 24.028,30.315L24.02,30.315C23.962,30.315 23.9,30.31 23.835,30.31C23.47,30.31 22.594,30.369 22.341,30.91L22.317,30.887C21.946,30.547 21.438,30.08 21.438,29.567C21.438,29.229 21.588,28.825 22.302,28.825C22.402,28.825 22.584,28.848 22.813,28.878L22.829,28.878C23.25,28.945 23.674,28.985 24.1,29C23.594,28.109 23.011,27.264 22.357,26.475C22.247,26.874 22.016,27.231 21.697,27.495C21.574,26.262 21.134,25.082 20.422,24.068C20.422,24.102 20.412,24.136 20.407,24.168L20.4,24.215L20.4,24.239L20.39,24.305C20.242,25.212 20.173,26.13 20.183,27.049C20.183,31.032 21.207,33.599 22.993,34.093C22.721,34.572 22.224,34.882 21.674,34.916C21.003,34.916 20.623,34.181 20.255,33.47L20.207,33.377C19.989,33.955 19.435,35.285 18.879,35.285ZM12.018,30.646L12.032,30.937L12.032,31.005C12.045,31.239 12.056,31.49 12.056,31.748C12.056,33.327 12.215,33.565 12.756,33.565C12.856,33.562 12.954,33.544 13.048,33.511C12.7,32.992 12.548,32.366 12.62,31.746L12.62,31.339L12.62,31.012C12.62,30.73 12.597,30.448 12.553,30.169L12.539,30.047L12.584,30.041L12.624,30.041C12.986,29.984 13.352,29.951 13.718,29.941C14.315,29.859 14.921,30.014 15.405,30.373C15.662,30.182 15.843,29.907 15.915,29.595C15.915,29.267 15.715,29.24 15.443,29.24C15.319,29.243 15.196,29.254 15.074,29.273L15.006,29.282C14.386,29.377 13.759,29.418 13.132,29.405L13.068,29.405L13.088,29.341C13.629,28.152 14.351,27.054 15.228,26.086C15.128,25.721 15.028,25.462 14.657,25.462C14.52,25.459 14.384,25.484 14.257,25.535C13.595,26.905 12.791,28.202 11.857,29.403L11.843,29.421L11.826,29.444L11.8,29.438C10.946,29.291 10.082,29.208 9.215,29.19L9.213,29.19C9.107,29.176 9,29.203 8.913,29.264C8.841,29.359 8.807,29.477 8.819,29.595C8.828,29.886 8.905,30.171 9.043,30.428C9.53,30.004 10.176,29.808 10.816,29.89C11.07,29.9 11.322,29.942 11.566,30.014L11.715,30.05L11.658,30.109L11.205,30.56C10.42,31.346 9.742,32.025 9.742,32.478C9.791,32.8 9.977,33.086 10.251,33.262C10.484,32.23 11.089,31.319 11.951,30.705L12.019,30.653L12.018,30.646ZM24.029,29.936C24.395,29.946 24.759,29.98 25.121,30.036L25.207,30.047L25.191,30.169L25.191,30.2C25.151,30.469 25.13,30.74 25.129,31.012L25.129,31.747C25.202,32.367 25.05,32.994 24.701,33.512C24.795,33.544 24.894,33.562 24.993,33.565C25.54,33.565 25.699,33.327 25.699,31.749C25.699,31.428 25.717,31.121 25.728,30.938L25.741,30.647L25.811,30.699C26.671,31.314 27.277,32.225 27.511,33.256C27.785,33.08 27.971,32.794 28.02,32.472C28.02,32.02 27.341,31.341 26.554,30.554L26.045,30.044L26.125,30.023L26.193,30.008L26.208,30.008C26.448,29.94 26.694,29.9 26.943,29.888C27.584,29.806 28.23,30.002 28.717,30.426C28.855,30.169 28.932,29.884 28.941,29.593C28.953,29.475 28.919,29.357 28.848,29.262C28.761,29.201 28.654,29.174 28.548,29.188L28.527,29.188C27.661,29.207 26.797,29.289 25.943,29.436L25.915,29.442L25.898,29.419L25.885,29.401C24.952,28.199 24.148,26.903 23.485,25.533C23.358,25.481 23.222,25.456 23.085,25.46C22.716,25.46 22.617,25.718 22.517,26.082C23.396,27.049 24.118,28.148 24.657,29.338L24.678,29.402L24.613,29.402C23.992,29.412 23.371,29.371 22.757,29.28L22.74,29.28L22.652,29.269C22.536,29.251 22.419,29.241 22.302,29.238C22.035,29.238 21.83,29.264 21.83,29.593C21.902,29.905 22.083,30.181 22.34,30.371C22.824,30.009 23.431,29.853 24.03,29.935L24.029,29.936ZM27.847,3.467C27.736,3.494 27.622,3.521 27.508,3.545L27.568,3.619C28.338,4.41 28.808,5.446 28.895,6.547C28.84,7.927 28.173,9.214 27.078,10.056C25.88,11.028 24.388,11.57 22.845,11.593C22.868,11.86 22.868,12.093 22.868,12.293L22.868,12.315C22.868,12.689 22.844,13.063 22.799,13.435C26.453,13.368 29.659,10.446 29.659,7.18C29.562,5.754 28.912,4.421 27.847,3.467ZM9.917,3.467C8.85,4.421 8.199,5.757 8.105,7.185C8.105,10.436 11.412,13.418 15.044,13.44C15.002,13.068 14.981,12.694 14.982,12.32C14.982,12.075 14.993,11.831 15.014,11.596C11.741,11.596 8.87,9.236 8.87,6.547C8.958,5.446 9.428,4.409 10.2,3.618L10.259,3.546C10.158,3.524 10.053,3.5 9.917,3.467ZM16.743,1.831C17.291,1.859 17.799,2.129 18.131,2.566C18.452,2.958 18.68,3.418 18.8,3.91L18.8,3.901C18.992,3.528 19.105,3.12 19.131,2.701C19.131,1.435 18.131,0.679 16.466,0.679C15.707,0.679 15.31,0.917 15.31,1.152C15.367,1.485 15.482,1.805 15.65,2.098C15.997,1.949 16.366,1.859 16.743,1.831ZM19.486,0.824C19.219,0.824 19.156,1.084 19.149,1.302C19.357,1.585 19.495,1.915 19.549,2.262C19.611,2.274 19.674,2.281 19.737,2.281C20.16,2.29 20.534,1.995 20.624,1.581C20.626,1.564 20.627,1.546 20.627,1.529C20.627,1.295 20.447,1.097 20.214,1.075C20.328,1.439 19.814,1.7 19.753,1.729C19.718,1.64 19.561,1.185 19.818,0.922C19.716,0.865 19.603,0.832 19.486,0.824Z" style="fill-rule:nonzero;"/>
            </g>
            <g id="Shape-4" transform="matrix(1,0,0,1,47.782,2.361)">
                <rect x="0" y="0" width="5.66" height="32.4" style="fill-rule:nonzero;"/>
            </g>
        </g>
        <g id="Name" transform="matrix(1.62446,0,0,-1.62446,-37.7273,135.368)">
            <path d="M67.748,80.117C67.748,79.831 67.712,79.581 67.641,79.367C67.569,79.153 67.472,78.968 67.349,78.814C67.226,78.659 67.084,78.534 66.921,78.439C66.758,78.344 66.59,78.272 66.415,78.225L66.415,78.201C66.629,78.161 66.83,78.086 67.016,77.975C67.203,77.864 67.365,77.725 67.504,77.558C67.643,77.391 67.754,77.195 67.837,76.969C67.921,76.743 67.962,76.495 67.962,76.225C67.962,75.9 67.907,75.603 67.796,75.333C67.684,75.063 67.512,74.829 67.278,74.631C67.044,74.432 66.748,74.278 66.391,74.167C66.034,74.056 65.61,74 65.118,74L63.44,74L63.44,82.211L65.023,82.211C65.507,82.211 65.921,82.161 66.266,82.062C66.612,81.963 66.895,81.822 67.117,81.64C67.339,81.457 67.5,81.237 67.599,80.979C67.698,80.722 67.748,80.434 67.748,80.117ZM66.701,80.081C66.701,80.462 66.566,80.775 66.296,81.021C66.026,81.267 65.602,81.39 65.023,81.39L64.475,81.39L64.475,78.558L65.011,78.558C65.566,78.558 65.987,78.693 66.272,78.962C66.558,79.232 66.701,79.605 66.701,80.081ZM66.855,76.297C66.855,76.741 66.711,77.092 66.421,77.35C66.132,77.608 65.717,77.737 65.177,77.737L64.475,77.737L64.475,74.857L65.118,74.857C65.729,74.857 66.171,74.978 66.445,75.22C66.719,75.462 66.855,75.821 66.855,76.297ZM73.234,74L72.353,74L72.353,74.643L72.329,74.643C72.306,74.595 72.254,74.526 72.175,74.434C72.095,74.343 71.994,74.256 71.871,74.173C71.748,74.089 71.6,74.016 71.425,73.952C71.251,73.889 71.056,73.857 70.842,73.857C70.588,73.857 70.36,73.895 70.158,73.97C69.955,74.046 69.783,74.167 69.64,74.333C69.497,74.5 69.388,74.716 69.313,74.982C69.237,75.248 69.2,75.575 69.2,75.964L69.2,79.712L70.164,79.712L70.164,76.035C70.164,75.559 70.241,75.22 70.396,75.017C70.55,74.815 70.79,74.714 71.116,74.714C71.393,74.714 71.627,74.783 71.818,74.922C72.008,75.061 72.159,75.198 72.27,75.333L72.27,79.712L73.234,79.712L73.234,74ZM77.827,74L77.827,77.677C77.827,78.161 77.746,78.508 77.583,78.718C77.421,78.929 77.173,79.034 76.84,79.034C76.554,79.034 76.316,78.962 76.126,78.82C75.935,78.677 75.784,78.538 75.673,78.403L75.673,74L74.709,74L74.709,79.712L75.59,79.712L75.59,79.069L75.614,79.069C75.638,79.117 75.689,79.186 75.769,79.278C75.848,79.369 75.951,79.456 76.078,79.54C76.205,79.623 76.356,79.696 76.53,79.76C76.705,79.823 76.903,79.855 77.125,79.855C77.379,79.855 77.609,79.817 77.815,79.742C78.022,79.666 78.196,79.545 78.339,79.379C78.482,79.212 78.593,78.996 78.672,78.73C78.751,78.465 78.791,78.137 78.791,77.749L78.791,74L77.827,74ZM79.969,76.773C79.969,77.352 80.045,77.836 80.195,78.225C80.346,78.613 80.54,78.927 80.778,79.165C81.016,79.403 81.286,79.571 81.588,79.67C81.889,79.769 82.191,79.819 82.492,79.819C82.675,79.819 82.833,79.805 82.968,79.777C83.103,79.75 83.214,79.716 83.301,79.676L83.301,82.413L84.265,82.52L84.265,74L83.385,74L83.385,74.607L83.361,74.607C83.337,74.559 83.293,74.494 83.23,74.411C83.166,74.327 83.079,74.244 82.968,74.161C82.857,74.077 82.718,74.006 82.552,73.946C82.385,73.887 82.191,73.857 81.968,73.857C81.699,73.857 81.443,73.911 81.201,74.018C80.959,74.125 80.747,74.296 80.564,74.53C80.382,74.764 80.237,75.065 80.13,75.434C80.023,75.803 79.969,76.249 79.969,76.773ZM82.23,74.714C82.381,74.714 82.516,74.734 82.635,74.774C82.754,74.813 82.857,74.863 82.944,74.922C83.031,74.982 83.105,75.043 83.164,75.107C83.224,75.17 83.269,75.226 83.301,75.273L83.301,78.796C83.214,78.851 83.113,78.899 82.998,78.939C82.883,78.978 82.738,78.998 82.563,78.998C82.341,78.998 82.133,78.96 81.939,78.885C81.744,78.81 81.576,78.685 81.433,78.51C81.29,78.336 81.177,78.11 81.094,77.832C81.01,77.554 80.969,77.213 80.969,76.808C80.969,76.412 81.003,76.081 81.07,75.815C81.137,75.549 81.231,75.335 81.35,75.172C81.469,75.01 81.604,74.893 81.754,74.821C81.905,74.75 82.064,74.714 82.23,74.714ZM89.406,77.784C89.406,77.538 89.398,77.326 89.382,77.148C89.366,76.969 89.35,76.812 89.335,76.678L86.419,76.678C86.451,76.003 86.596,75.507 86.853,75.19C87.111,74.873 87.482,74.714 87.966,74.714C88.133,74.714 88.283,74.734 88.418,74.774C88.553,74.813 88.67,74.861 88.769,74.916C88.868,74.972 88.952,75.027 89.019,75.083C89.087,75.138 89.136,75.182 89.168,75.214L89.525,74.536C89.485,74.496 89.426,74.438 89.346,74.363C89.267,74.288 89.16,74.212 89.025,74.137C88.89,74.062 88.724,73.996 88.525,73.941C88.327,73.885 88.093,73.857 87.823,73.857C87.466,73.857 87.143,73.917 86.853,74.036C86.564,74.155 86.318,74.339 86.116,74.589C85.913,74.839 85.757,75.156 85.646,75.541C85.534,75.926 85.479,76.388 85.479,76.927C85.479,77.435 85.536,77.874 85.652,78.242C85.766,78.611 85.923,78.915 86.122,79.153C86.32,79.391 86.55,79.567 86.812,79.682C87.074,79.797 87.355,79.855 87.657,79.855C88.204,79.855 88.632,79.682 88.942,79.337C89.251,78.992 89.406,78.474 89.406,77.784ZM87.597,79.069C87.256,79.069 86.982,78.927 86.776,78.641C86.57,78.355 86.451,77.943 86.419,77.403L88.501,77.403C88.509,77.443 88.515,77.501 88.519,77.576C88.523,77.651 88.525,77.733 88.525,77.82C88.525,78.217 88.446,78.524 88.287,78.742C88.129,78.96 87.899,79.069 87.597,79.069ZM93.154,78.558C93.091,78.629 92.976,78.726 92.809,78.849C92.643,78.972 92.425,79.034 92.155,79.034C91.901,79.034 91.707,78.974 91.572,78.855C91.437,78.736 91.369,78.593 91.369,78.427C91.369,78.213 91.431,78.036 91.554,77.897C91.677,77.758 91.865,77.61 92.119,77.451L92.476,77.237C92.865,77.007 93.17,76.759 93.392,76.493C93.615,76.227 93.726,75.884 93.726,75.464C93.726,75.012 93.569,74.631 93.256,74.321C92.942,74.012 92.492,73.857 91.905,73.857C91.675,73.857 91.473,73.881 91.298,73.929C91.124,73.976 90.971,74.032 90.84,74.095C90.709,74.159 90.6,74.228 90.513,74.303C90.425,74.379 90.354,74.448 90.298,74.512L90.763,75.273C90.81,75.226 90.868,75.17 90.935,75.107C91.003,75.043 91.084,74.982 91.179,74.922C91.274,74.863 91.381,74.813 91.5,74.774C91.619,74.734 91.758,74.714 91.917,74.714C92.202,74.714 92.421,74.778 92.571,74.904C92.722,75.031 92.797,75.186 92.797,75.369C92.797,75.503 92.78,75.62 92.744,75.72C92.708,75.819 92.655,75.908 92.583,75.987C92.512,76.067 92.425,76.142 92.321,76.213C92.218,76.285 92.099,76.364 91.964,76.451L91.607,76.678C91.25,76.908 90.971,77.15 90.769,77.403C90.566,77.657 90.465,77.983 90.465,78.379C90.465,78.593 90.507,78.79 90.59,78.968C90.673,79.147 90.79,79.301 90.941,79.432C91.092,79.563 91.268,79.666 91.471,79.742C91.673,79.817 91.889,79.855 92.119,79.855C92.341,79.855 92.532,79.833 92.69,79.789C92.849,79.746 92.986,79.69 93.101,79.623C93.216,79.555 93.311,79.488 93.387,79.421C93.462,79.353 93.523,79.296 93.571,79.248L93.154,78.558ZM97.855,74L97.855,77.677C97.855,78.145 97.787,78.482 97.653,78.689C97.518,78.895 97.3,78.998 96.998,78.998C96.839,78.998 96.699,78.978 96.576,78.939C96.453,78.899 96.344,78.849 96.248,78.79C96.153,78.73 96.07,78.665 95.999,78.593C95.927,78.522 95.868,78.459 95.82,78.403L95.82,74L94.856,74L94.856,79.712L95.737,79.712L95.737,79.069L95.76,79.069C95.8,79.133 95.86,79.21 95.939,79.301C96.018,79.393 96.118,79.48 96.237,79.563C96.356,79.647 96.494,79.716 96.653,79.772C96.812,79.827 96.99,79.855 97.189,79.855C97.839,79.855 98.299,79.601 98.569,79.093C98.624,79.173 98.7,79.258 98.795,79.349C98.89,79.44 99.001,79.524 99.128,79.599C99.255,79.674 99.398,79.736 99.557,79.783C99.715,79.831 99.89,79.855 100.08,79.855C101.239,79.855 101.818,79.181 101.818,77.832L101.818,74L100.854,74L100.854,77.677C100.854,78.145 100.77,78.482 100.604,78.689C100.437,78.895 100.191,78.998 99.866,78.998C99.596,78.998 99.372,78.933 99.194,78.802C99.015,78.671 98.874,78.546 98.771,78.427C98.787,78.34 98.799,78.246 98.807,78.147C98.815,78.048 98.819,77.943 98.819,77.832L98.819,74L97.855,74ZM104.221,74L103.257,74L103.257,79.712L104.221,79.712L104.221,74ZM103.745,81.092C103.547,81.092 103.388,81.156 103.269,81.283C103.15,81.41 103.091,81.576 103.091,81.783C103.091,81.981 103.15,82.144 103.269,82.271C103.388,82.397 103.547,82.461 103.745,82.461C103.936,82.461 104.091,82.397 104.21,82.271C104.329,82.144 104.388,81.981 104.388,81.783C104.388,81.576 104.329,81.41 104.21,81.283C104.091,81.156 103.936,81.092 103.745,81.092ZM108.815,74L108.815,77.677C108.815,78.161 108.734,78.508 108.571,78.718C108.408,78.929 108.16,79.034 107.827,79.034C107.542,79.034 107.304,78.962 107.113,78.82C106.923,78.677 106.772,78.538 106.661,78.403L106.661,74L105.697,74L105.697,79.712L106.578,79.712L106.578,79.069L106.601,79.069C106.625,79.117 106.677,79.186 106.756,79.278C106.835,79.369 106.939,79.456 107.066,79.54C107.192,79.623 107.343,79.696 107.518,79.76C107.692,79.823 107.891,79.855 108.113,79.855C108.367,79.855 108.597,79.817 108.803,79.742C109.009,79.666 109.184,79.545 109.327,79.379C109.469,79.212 109.58,78.996 109.66,78.73C109.739,78.465 109.779,78.137 109.779,77.749L109.779,74L108.815,74ZM112.183,74L111.219,74L111.219,79.712L112.183,79.712L112.183,74ZM111.707,81.092C111.508,81.092 111.35,81.156 111.231,81.283C111.112,81.41 111.052,81.576 111.052,81.783C111.052,81.981 111.112,82.144 111.231,82.271C111.35,82.397 111.508,82.461 111.707,82.461C111.897,82.461 112.052,82.397 112.171,82.271C112.29,82.144 112.349,81.981 112.349,81.783C112.349,81.576 112.29,81.41 112.171,81.283C112.052,81.156 111.897,81.092 111.707,81.092ZM116.121,78.558C116.058,78.629 115.943,78.726 115.776,78.849C115.61,78.972 115.391,79.034 115.122,79.034C114.868,79.034 114.674,78.974 114.539,78.855C114.404,78.736 114.336,78.593 114.336,78.427C114.336,78.213 114.398,78.036 114.521,77.897C114.644,77.758 114.832,77.61 115.086,77.451L115.443,77.237C115.832,77.007 116.137,76.759 116.359,76.493C116.582,76.227 116.693,75.884 116.693,75.464C116.693,75.012 116.536,74.631 116.223,74.321C115.909,74.012 115.459,73.857 114.872,73.857C114.642,73.857 114.44,73.881 114.265,73.929C114.091,73.976 113.938,74.032 113.807,74.095C113.676,74.159 113.567,74.228 113.48,74.303C113.392,74.379 113.321,74.448 113.265,74.512L113.73,75.273C113.777,75.226 113.835,75.17 113.902,75.107C113.97,75.043 114.051,74.982 114.146,74.922C114.241,74.863 114.348,74.813 114.467,74.774C114.586,74.734 114.725,74.714 114.884,74.714C115.169,74.714 115.388,74.778 115.538,74.904C115.689,75.031 115.764,75.186 115.764,75.369C115.764,75.503 115.747,75.62 115.711,75.72C115.675,75.819 115.622,75.908 115.55,75.987C115.479,76.067 115.391,76.142 115.288,76.213C115.185,76.285 115.066,76.364 114.931,76.451L114.574,76.678C114.217,76.908 113.938,77.15 113.736,77.403C113.533,77.657 113.432,77.983 113.432,78.379C113.432,78.593 113.474,78.79 113.557,78.968C113.64,79.147 113.757,79.301 113.908,79.432C114.059,79.563 114.235,79.666 114.438,79.742C114.64,79.817 114.856,79.855 115.086,79.855C115.308,79.855 115.499,79.833 115.657,79.789C115.816,79.746 115.953,79.69 116.068,79.623C116.183,79.555 116.278,79.488 116.354,79.421C116.429,79.353 116.49,79.296 116.538,79.248L116.121,78.558ZM120.263,78.927L119.013,78.927L119.013,75.761C119.013,75.357 119.065,75.081 119.168,74.934C119.271,74.787 119.446,74.714 119.691,74.714C119.834,74.714 119.957,74.734 120.06,74.774C120.163,74.813 120.239,74.849 120.286,74.881L120.417,74.107C120.378,74.075 120.282,74.026 120.132,73.958C119.981,73.891 119.779,73.857 119.525,73.857C119.033,73.857 118.664,73.994 118.418,74.268C118.172,74.541 118.049,74.996 118.049,75.63L118.049,78.927L117.359,78.927L117.359,79.569L118.049,79.712L118.156,81.307L119.013,81.307L119.013,79.712L120.382,79.712L120.263,78.927ZM124.939,77.784C124.939,77.538 124.931,77.326 124.915,77.148C124.9,76.969 124.884,76.812 124.868,76.678L121.952,76.678C121.984,76.003 122.129,75.507 122.387,75.19C122.645,74.873 123.016,74.714 123.499,74.714C123.666,74.714 123.817,74.734 123.952,74.774C124.087,74.813 124.204,74.861 124.303,74.916C124.402,74.972 124.485,75.027 124.553,75.083C124.62,75.138 124.67,75.182 124.701,75.214L125.058,74.536C125.019,74.496 124.959,74.438 124.88,74.363C124.801,74.288 124.693,74.212 124.558,74.137C124.424,74.062 124.257,73.996 124.059,73.941C123.86,73.885 123.626,73.857 123.357,73.857C123,73.857 122.676,73.917 122.387,74.036C122.097,74.155 121.851,74.339 121.649,74.589C121.447,74.839 121.29,75.156 121.179,75.541C121.068,75.926 121.012,76.388 121.012,76.927C121.012,77.435 121.07,77.874 121.185,78.242C121.3,78.611 121.457,78.915 121.655,79.153C121.853,79.391 122.083,79.567 122.345,79.682C122.607,79.797 122.888,79.855 123.19,79.855C123.737,79.855 124.166,79.682 124.475,79.337C124.785,78.992 124.939,78.474 124.939,77.784ZM123.131,79.069C122.789,79.069 122.516,78.927 122.309,78.641C122.103,78.355 121.984,77.943 121.952,77.403L124.035,77.403C124.043,77.443 124.049,77.501 124.053,77.576C124.057,77.651 124.059,77.733 124.059,77.82C124.059,78.217 123.979,78.524 123.821,78.742C123.662,78.96 123.432,79.069 123.131,79.069ZM128.735,78.867C128.712,78.883 128.66,78.903 128.581,78.927C128.501,78.95 128.394,78.962 128.259,78.962C127.958,78.962 127.722,78.881 127.551,78.718C127.381,78.556 127.26,78.379 127.188,78.189L127.188,74L126.225,74L126.225,79.712L127.105,79.712L127.105,78.939L127.129,78.939C127.169,79.05 127.22,79.159 127.284,79.266C127.347,79.373 127.426,79.468 127.522,79.551C127.617,79.635 127.73,79.7 127.861,79.748C127.992,79.795 128.148,79.819 128.331,79.819C128.466,79.819 128.575,79.807 128.658,79.783C128.741,79.76 128.807,79.74 128.854,79.724L128.735,78.867ZM130.651,74L129.687,74L129.687,79.712L130.651,79.712L130.651,74ZM130.175,81.092C129.977,81.092 129.818,81.156 129.699,81.283C129.58,81.41 129.521,81.576 129.521,81.783C129.521,81.981 129.58,82.144 129.699,82.271C129.818,82.397 129.977,82.461 130.175,82.461C130.366,82.461 130.52,82.397 130.639,82.271C130.758,82.144 130.818,81.981 130.818,81.783C130.818,81.576 130.758,81.41 130.639,81.283C130.52,81.156 130.366,81.092 130.175,81.092ZM136.125,74L135.245,74L135.245,74.643L135.221,74.643C135.197,74.595 135.146,74.526 135.066,74.434C134.987,74.343 134.886,74.256 134.763,74.173C134.64,74.089 134.491,74.016 134.317,73.952C134.142,73.889 133.948,73.857 133.733,73.857C133.48,73.857 133.252,73.895 133.049,73.97C132.847,74.046 132.674,74.167 132.532,74.333C132.389,74.5 132.28,74.716 132.204,74.982C132.129,75.248 132.091,75.575 132.091,75.964L132.091,79.712L133.055,79.712L133.055,76.035C133.055,75.559 133.133,75.22 133.287,75.017C133.442,74.815 133.682,74.714 134.007,74.714C134.285,74.714 134.519,74.783 134.709,74.922C134.9,75.061 135.05,75.198 135.161,75.333L135.161,79.712L136.125,79.712L136.125,74ZM140.6,74L140.6,77.677C140.6,78.145 140.532,78.482 140.397,78.689C140.263,78.895 140.044,78.998 139.743,78.998C139.584,78.998 139.443,78.978 139.321,78.939C139.198,78.899 139.088,78.849 138.993,78.79C138.898,78.73 138.815,78.665 138.743,78.593C138.672,78.522 138.612,78.459 138.565,78.403L138.565,74L137.601,74L137.601,79.712L138.482,79.712L138.482,79.069L138.505,79.069C138.545,79.133 138.605,79.21 138.684,79.301C138.763,79.393 138.862,79.48 138.981,79.563C139.1,79.647 139.239,79.716 139.398,79.772C139.557,79.827 139.735,79.855 139.933,79.855C140.584,79.855 141.044,79.601 141.314,79.093C141.369,79.173 141.445,79.258 141.54,79.349C141.635,79.44 141.746,79.524 141.873,79.599C142,79.674 142.143,79.736 142.301,79.783C142.46,79.831 142.635,79.855 142.825,79.855C143.983,79.855 144.562,79.181 144.562,77.832L144.562,74L143.599,74L143.599,77.677C143.599,78.145 143.515,78.482 143.349,78.689C143.182,78.895 142.936,78.998 142.611,78.998C142.341,78.998 142.117,78.933 141.939,78.802C141.76,78.671 141.619,78.546 141.516,78.427C141.532,78.34 141.544,78.246 141.552,78.147C141.56,78.048 141.564,77.943 141.564,77.832L141.564,74L140.6,74ZM65.642,66.927L64.475,66.927L64.475,62L63.512,62L63.512,66.927L62.821,66.927L62.821,67.569L63.512,67.7L63.512,68.843C63.512,69.152 63.555,69.418 63.642,69.64C63.73,69.862 63.845,70.044 63.987,70.187C64.13,70.33 64.297,70.433 64.487,70.497C64.678,70.56 64.88,70.592 65.094,70.592C65.301,70.592 65.475,70.564 65.618,70.509C65.761,70.453 65.856,70.409 65.903,70.378L65.701,69.58C65.653,69.612 65.586,69.646 65.499,69.682C65.412,69.717 65.304,69.735 65.177,69.735C64.947,69.735 64.773,69.664 64.654,69.521C64.535,69.378 64.475,69.116 64.475,68.735L64.475,67.712L65.761,67.712L65.642,66.927ZM70.592,62L69.711,62L69.711,62.643L69.688,62.643C69.664,62.595 69.612,62.526 69.533,62.434C69.454,62.343 69.352,62.256 69.23,62.173C69.107,62.089 68.958,62.016 68.783,61.952C68.609,61.889 68.414,61.857 68.2,61.857C67.946,61.857 67.718,61.895 67.516,61.97C67.314,62.046 67.141,62.167 66.998,62.333C66.855,62.5 66.746,62.716 66.671,62.982C66.596,63.248 66.558,63.575 66.558,63.964L66.558,67.712L67.522,67.712L67.522,64.035C67.522,63.559 67.599,63.22 67.754,63.017C67.909,62.815 68.149,62.714 68.474,62.714C68.751,62.714 68.986,62.783 69.176,62.922C69.366,63.061 69.517,63.198 69.628,63.333L69.628,67.712L70.592,67.712L70.592,62ZM68.224,69.354C68.224,69.172 68.168,69.025 68.057,68.914C67.946,68.803 67.811,68.747 67.653,68.747C67.494,68.747 67.359,68.803 67.248,68.914C67.137,69.025 67.082,69.172 67.082,69.354C67.082,69.537 67.137,69.683 67.248,69.795C67.359,69.906 67.494,69.961 67.653,69.961C67.811,69.961 67.946,69.906 68.057,69.795C68.168,69.683 68.224,69.537 68.224,69.354ZM70.057,69.354C70.057,69.172 70.001,69.025 69.89,68.914C69.779,68.803 69.644,68.747 69.485,68.747C69.327,68.747 69.192,68.803 69.081,68.914C68.97,69.025 68.914,69.172 68.914,69.354C68.914,69.537 68.97,69.683 69.081,69.795C69.192,69.906 69.327,69.961 69.485,69.961C69.644,69.961 69.779,69.906 69.89,69.795C70.001,69.683 70.057,69.537 70.057,69.354ZM74.579,66.867C74.555,66.883 74.503,66.903 74.424,66.927C74.345,66.95 74.237,66.962 74.103,66.962C73.801,66.962 73.565,66.881 73.394,66.718C73.224,66.556 73.103,66.379 73.031,66.189L73.031,62L72.068,62L72.068,67.712L72.948,67.712L72.948,66.939L72.972,66.939C73.012,67.05 73.063,67.159 73.127,67.266C73.19,67.373 73.269,67.468 73.365,67.551C73.46,67.635 73.573,67.7 73.704,67.748C73.835,67.795 73.991,67.819 74.174,67.819C74.309,67.819 74.418,67.807 74.501,67.783C74.585,67.76 74.65,67.74 74.698,67.724L74.579,66.867ZM81.945,69.39L79.017,69.39L79.017,66.558L81.707,66.558L81.707,65.737L79.017,65.737L79.017,62.857L82.242,62.857L82.183,62L77.982,62L77.982,70.211L82.016,70.211L81.945,69.39ZM85.931,66.867C85.907,66.883 85.856,66.903 85.776,66.927C85.697,66.95 85.59,66.962 85.455,66.962C85.154,66.962 84.918,66.881 84.747,66.718C84.577,66.556 84.456,66.379 84.384,66.189L84.384,62L83.42,62L83.42,67.712L84.301,67.712L84.301,66.939L84.325,66.939C84.364,67.05 84.416,67.159 84.479,67.266C84.543,67.373 84.622,67.468 84.717,67.551C84.813,67.635 84.926,67.7 85.056,67.748C85.187,67.795 85.344,67.819 85.527,67.819C85.661,67.819 85.771,67.807 85.854,67.783C85.937,67.76 86.003,67.74 86.05,67.724L85.931,66.867ZM90.001,62L90.001,65.677C90.001,66.161 89.92,66.508 89.757,66.718C89.594,66.929 89.346,67.034 89.013,67.034C88.728,67.034 88.49,66.962 88.299,66.82C88.109,66.677 87.958,66.538 87.847,66.403L87.847,62L86.883,62L86.883,67.712L87.764,67.712L87.764,67.069L87.787,67.069C87.811,67.117 87.863,67.186 87.942,67.278C88.022,67.369 88.125,67.456 88.252,67.54C88.379,67.623 88.529,67.696 88.704,67.76C88.878,67.823 89.077,67.855 89.299,67.855C89.553,67.855 89.783,67.817 89.989,67.742C90.195,67.666 90.37,67.545 90.513,67.379C90.655,67.212 90.766,66.996 90.846,66.73C90.925,66.465 90.965,66.137 90.965,65.749L90.965,62L90.001,62ZM92.072,63.452C92.072,63.785 92.135,64.063 92.262,64.285C92.389,64.507 92.559,64.687 92.774,64.826C92.988,64.965 93.24,65.064 93.529,65.124C93.819,65.183 94.126,65.213 94.452,65.213L94.749,65.213L94.749,65.76C94.749,66.244 94.664,66.578 94.493,66.76C94.323,66.943 94.083,67.034 93.773,67.034C93.488,67.034 93.25,66.972 93.059,66.849C92.869,66.726 92.718,66.617 92.607,66.522L92.202,67.165C92.266,67.228 92.347,67.3 92.446,67.379C92.546,67.458 92.667,67.534 92.809,67.605C92.952,67.676 93.115,67.736 93.297,67.783C93.48,67.831 93.686,67.855 93.916,67.855C94.503,67.855 94.947,67.692 95.249,67.367C95.55,67.042 95.701,66.518 95.701,65.796L95.701,63.19C95.701,62.944 95.709,62.704 95.725,62.47C95.741,62.236 95.757,62.079 95.772,62L94.856,62L94.82,62.631L94.797,62.631C94.765,62.559 94.717,62.478 94.654,62.387C94.59,62.295 94.511,62.212 94.416,62.137C94.321,62.062 94.206,61.996 94.071,61.941C93.936,61.885 93.777,61.857 93.595,61.857C93.381,61.857 93.18,61.897 92.994,61.976C92.807,62.056 92.645,62.167 92.506,62.309C92.367,62.452 92.26,62.621 92.185,62.815C92.109,63.01 92.072,63.222 92.072,63.452ZM93.797,62.678C93.932,62.678 94.051,62.698 94.154,62.738C94.257,62.778 94.346,62.825 94.422,62.881C94.497,62.936 94.561,62.998 94.612,63.065C94.664,63.133 94.709,63.19 94.749,63.238L94.749,64.499L94.44,64.487C93.98,64.471 93.63,64.392 93.392,64.249C93.154,64.106 93.035,63.876 93.035,63.559C93.035,63.265 93.103,63.045 93.238,62.899C93.373,62.752 93.559,62.678 93.797,62.678ZM93.571,69.354C93.571,69.172 93.515,69.025 93.404,68.914C93.293,68.803 93.158,68.747 93,68.747C92.841,68.747 92.706,68.803 92.595,68.914C92.484,69.025 92.429,69.172 92.429,69.354C92.429,69.537 92.484,69.683 92.595,69.795C92.706,69.906 92.841,69.961 93,69.961C93.158,69.961 93.293,69.906 93.404,69.795C93.515,69.683 93.571,69.537 93.571,69.354ZM95.403,69.354C95.403,69.172 95.348,69.025 95.237,68.914C95.126,68.803 94.991,68.747 94.832,68.747C94.674,68.747 94.539,68.803 94.428,68.914C94.317,69.025 94.261,69.172 94.261,69.354C94.261,69.537 94.317,69.683 94.428,69.795C94.539,69.906 94.674,69.961 94.832,69.961C94.991,69.961 95.126,69.906 95.237,69.795C95.348,69.683 95.403,69.537 95.403,69.354ZM100.271,62L100.271,65.677C100.271,66.161 100.189,66.508 100.027,66.718C99.864,66.929 99.616,67.034 99.283,67.034C98.997,67.034 98.759,66.962 98.569,66.82C98.379,66.677 98.228,66.538 98.117,66.403L98.117,62L97.153,62L97.153,70.413L98.117,70.52L98.117,67.129L98.141,67.129C98.172,67.177 98.222,67.24 98.289,67.319C98.357,67.399 98.45,67.478 98.569,67.557C98.688,67.637 98.833,67.706 99.003,67.766C99.174,67.825 99.374,67.855 99.604,67.855C100.104,67.855 100.501,67.692 100.794,67.367C101.088,67.042 101.235,66.502 101.235,65.749L101.235,62L100.271,62ZM105.185,66.867C105.162,66.883 105.11,66.903 105.031,66.927C104.951,66.95 104.844,66.962 104.709,66.962C104.408,66.962 104.172,66.881 104.001,66.718C103.831,66.556 103.71,66.379 103.638,66.189L103.638,62L102.674,62L102.674,67.712L103.555,67.712L103.555,66.939L103.579,66.939C103.619,67.05 103.67,67.159 103.734,67.266C103.797,67.373 103.876,67.468 103.972,67.551C104.067,67.635 104.18,67.7 104.311,67.748C104.442,67.795 104.598,67.819 104.781,67.819C104.916,67.819 105.025,67.807 105.108,67.783C105.191,67.76 105.257,67.74 105.304,67.724L105.185,66.867ZM110.136,62L109.255,62L109.255,62.643L109.231,62.643C109.208,62.595 109.156,62.526 109.077,62.434C108.997,62.343 108.896,62.256 108.773,62.173C108.65,62.089 108.501,62.016 108.327,61.952C108.152,61.889 107.958,61.857 107.744,61.857C107.49,61.857 107.262,61.895 107.06,61.97C106.857,62.046 106.685,62.167 106.542,62.333C106.399,62.5 106.29,62.716 106.215,62.982C106.139,63.248 106.102,63.575 106.102,63.964L106.102,67.712L107.066,67.712L107.066,64.035C107.066,63.559 107.143,63.22 107.298,63.017C107.452,62.815 107.692,62.714 108.018,62.714C108.295,62.714 108.529,62.783 108.72,62.922C108.91,63.061 109.061,63.198 109.172,63.333L109.172,67.712L110.136,67.712L110.136,62ZM114.729,62L114.729,65.677C114.729,66.161 114.648,66.508 114.485,66.718C114.323,66.929 114.075,67.034 113.741,67.034C113.456,67.034 113.218,66.962 113.027,66.82C112.837,66.677 112.686,66.538 112.575,66.403L112.575,62L111.611,62L111.611,67.712L112.492,67.712L112.492,67.069L112.516,67.069C112.54,67.117 112.591,67.186 112.67,67.278C112.75,67.369 112.853,67.456 112.98,67.54C113.107,67.623 113.257,67.696 113.432,67.76C113.607,67.823 113.805,67.855 114.027,67.855C114.281,67.855 114.511,67.817 114.717,67.742C114.924,67.666 115.098,67.545 115.241,67.379C115.384,67.212 115.495,66.996 115.574,66.73C115.653,66.465 115.693,66.137 115.693,65.749L115.693,62L114.729,62ZM121.227,66.962L120.513,66.962C120.695,66.661 120.786,66.32 120.786,65.939C120.786,65.637 120.737,65.366 120.638,65.124C120.538,64.882 120.4,64.677 120.221,64.511C120.043,64.344 119.832,64.217 119.59,64.13C119.348,64.043 119.089,63.999 118.811,63.999C118.755,63.999 118.704,63.999 118.656,63.999C118.609,63.999 118.557,64.003 118.501,64.011C118.406,63.971 118.307,63.908 118.204,63.821C118.101,63.733 118.049,63.618 118.049,63.476C118.049,63.357 118.095,63.259 118.186,63.184C118.277,63.109 118.426,63.071 118.632,63.071L119.358,63.071C119.628,63.071 119.878,63.043 120.108,62.988C120.338,62.932 120.538,62.843 120.709,62.72C120.879,62.597 121.012,62.44 121.108,62.25C121.203,62.06 121.25,61.829 121.25,61.56C121.25,61.25 121.185,60.969 121.054,60.715C120.923,60.461 120.739,60.243 120.501,60.06C120.263,59.878 119.973,59.735 119.632,59.632C119.291,59.529 118.91,59.477 118.49,59.477C117.879,59.477 117.415,59.61 117.097,59.876C116.78,60.142 116.621,60.524 116.621,61.024C116.621,61.238 116.659,61.423 116.734,61.578C116.81,61.732 116.899,61.867 117.002,61.982C117.105,62.097 117.21,62.188 117.317,62.256C117.424,62.323 117.51,62.377 117.573,62.417L117.573,62.44C117.327,62.623 117.204,62.889 117.204,63.238C117.204,63.388 117.234,63.519 117.294,63.63C117.353,63.741 117.421,63.833 117.496,63.904C117.571,63.975 117.647,64.033 117.722,64.077C117.797,64.12 117.855,64.15 117.894,64.166L117.894,64.19C117.601,64.325 117.365,64.537 117.187,64.826C117.008,65.116 116.919,65.487 116.919,65.939C116.919,66.256 116.97,66.536 117.073,66.778C117.177,67.02 117.315,67.22 117.49,67.379C117.664,67.538 117.869,67.656 118.103,67.736C118.337,67.815 118.589,67.855 118.858,67.855C119.128,67.855 119.382,67.807 119.62,67.712L121.357,67.712L121.227,66.962ZM118.573,62.179C118.406,62.179 118.259,62.19 118.132,62.214C118.061,62.175 117.992,62.127 117.924,62.071C117.857,62.016 117.795,61.948 117.74,61.869C117.684,61.79 117.639,61.697 117.603,61.589C117.567,61.482 117.549,61.357 117.549,61.215C117.549,60.604 117.887,60.298 118.561,60.298C119.14,60.298 119.568,60.411 119.846,60.637C120.124,60.864 120.263,61.123 120.263,61.417C120.263,61.695 120.175,61.891 120.001,62.006C119.826,62.121 119.592,62.179 119.299,62.179L118.573,62.179ZM119.846,65.939C119.846,66.351 119.749,66.645 119.555,66.82C119.36,66.994 119.132,67.081 118.87,67.081C118.593,67.081 118.355,66.994 118.156,66.82C117.958,66.645 117.859,66.351 117.859,65.939C117.859,65.526 117.958,65.233 118.156,65.058C118.355,64.884 118.585,64.796 118.847,64.796C119.124,64.796 119.36,64.884 119.555,65.058C119.749,65.233 119.846,65.526 119.846,65.939ZM67.236,50L66.356,50L66.356,50.643L66.332,50.643C66.308,50.595 66.256,50.526 66.177,50.434C66.098,50.343 65.997,50.256 65.874,50.173C65.751,50.089 65.602,50.016 65.427,49.952C65.253,49.889 65.058,49.857 64.844,49.857C64.59,49.857 64.362,49.895 64.16,49.97C63.958,50.046 63.785,50.167 63.642,50.333C63.5,50.5 63.391,50.716 63.315,50.982C63.24,51.248 63.202,51.575 63.202,51.964L63.202,55.712L64.166,55.712L64.166,52.035C64.166,51.559 64.243,51.22 64.398,51.017C64.553,50.815 64.793,50.714 65.118,50.714C65.396,50.714 65.63,50.783 65.82,50.922C66.01,51.061 66.161,51.198 66.272,51.333L66.272,55.712L67.236,55.712L67.236,50ZM71.83,50L71.83,53.677C71.83,54.161 71.748,54.508 71.586,54.718C71.423,54.929 71.175,55.034 70.842,55.034C70.556,55.034 70.318,54.962 70.128,54.82C69.938,54.677 69.787,54.538 69.676,54.403L69.676,50L68.712,50L68.712,55.712L69.592,55.712L69.592,55.069L69.616,55.069C69.64,55.117 69.692,55.186 69.771,55.278C69.85,55.369 69.953,55.456 70.08,55.539C70.207,55.623 70.358,55.696 70.533,55.76C70.707,55.823 70.905,55.855 71.128,55.855C71.381,55.855 71.611,55.817 71.818,55.742C72.024,55.666 72.199,55.545 72.341,55.379C72.484,55.212 72.595,54.996 72.675,54.73C72.754,54.465 72.794,54.137 72.794,53.749L72.794,50L71.83,50ZM73.972,52.773C73.972,53.352 74.047,53.836 74.198,54.225C74.348,54.613 74.543,54.927 74.781,55.165C75.019,55.403 75.289,55.571 75.59,55.67C75.891,55.77 76.193,55.819 76.494,55.819C76.677,55.819 76.836,55.805 76.97,55.777C77.105,55.75 77.216,55.716 77.304,55.676L77.304,58.413L78.268,58.52L78.268,50L77.387,50L77.387,50.607L77.363,50.607C77.339,50.559 77.296,50.494 77.232,50.411C77.169,50.327 77.082,50.244 76.97,50.161C76.859,50.077 76.721,50.006 76.554,49.946C76.387,49.887 76.193,49.857 75.971,49.857C75.701,49.857 75.445,49.911 75.203,50.018C74.961,50.125 74.749,50.295 74.567,50.53C74.384,50.764 74.239,51.065 74.132,51.434C74.025,51.803 73.972,52.249 73.972,52.773ZM76.233,50.714C76.383,50.714 76.518,50.734 76.637,50.774C76.756,50.813 76.859,50.863 76.947,50.922C77.034,50.982 77.107,51.043 77.167,51.107C77.226,51.17 77.272,51.226 77.304,51.273L77.304,54.796C77.216,54.851 77.115,54.899 77,54.939C76.885,54.978 76.74,54.998 76.566,54.998C76.344,54.998 76.135,54.96 75.941,54.885C75.747,54.81 75.578,54.685 75.435,54.51C75.293,54.336 75.18,54.109 75.096,53.832C75.013,53.554 74.971,53.213 74.971,52.808C74.971,52.412 75.005,52.081 75.072,51.815C75.14,51.549 75.233,51.335 75.352,51.172C75.471,51.01 75.606,50.893 75.757,50.821C75.907,50.75 76.066,50.714 76.233,50.714ZM83.504,58.211L83.504,50.857L86.502,50.857L86.431,50L82.468,50L82.468,58.211L83.504,58.211ZM87.05,51.452C87.05,51.785 87.113,52.063 87.24,52.285C87.367,52.507 87.538,52.687 87.752,52.826C87.966,52.965 88.218,53.064 88.507,53.124C88.797,53.183 89.104,53.213 89.43,53.213L89.727,53.213L89.727,53.76C89.727,54.244 89.642,54.578 89.471,54.76C89.301,54.943 89.061,55.034 88.751,55.034C88.466,55.034 88.228,54.972 88.037,54.849C87.847,54.726 87.696,54.617 87.585,54.522L87.181,55.165C87.244,55.228 87.325,55.3 87.425,55.379C87.524,55.458 87.645,55.533 87.787,55.605C87.93,55.676 88.093,55.736 88.275,55.783C88.458,55.831 88.664,55.855 88.894,55.855C89.481,55.855 89.926,55.692 90.227,55.367C90.528,55.042 90.679,54.518 90.679,53.796L90.679,51.19C90.679,50.944 90.687,50.704 90.703,50.47C90.719,50.236 90.735,50.079 90.751,50L89.834,50L89.799,50.631L89.775,50.631C89.743,50.559 89.696,50.478 89.632,50.387C89.569,50.295 89.489,50.212 89.394,50.137C89.299,50.062 89.184,49.996 89.049,49.941C88.914,49.885 88.755,49.857 88.573,49.857C88.359,49.857 88.158,49.897 87.972,49.976C87.786,50.056 87.623,50.167 87.484,50.309C87.345,50.452 87.238,50.621 87.163,50.815C87.087,51.01 87.05,51.222 87.05,51.452ZM88.775,50.678C88.91,50.678 89.029,50.698 89.132,50.738C89.235,50.778 89.325,50.825 89.4,50.881C89.475,50.936 89.539,50.998 89.59,51.065C89.642,51.133 89.688,51.19 89.727,51.238L89.727,52.499L89.418,52.487C88.958,52.471 88.609,52.392 88.371,52.249C88.133,52.106 88.014,51.876 88.014,51.559C88.014,51.265 88.081,51.045 88.216,50.899C88.351,50.752 88.537,50.678 88.775,50.678ZM95.249,50L95.249,53.677C95.249,54.161 95.168,54.508 95.005,54.718C94.842,54.929 94.594,55.034 94.261,55.034C93.976,55.034 93.738,54.962 93.547,54.82C93.357,54.677 93.206,54.538 93.095,54.403L93.095,50L92.131,50L92.131,55.712L93.012,55.712L93.012,55.069L93.035,55.069C93.059,55.117 93.111,55.186 93.19,55.278C93.269,55.369 93.373,55.456 93.5,55.539C93.626,55.623 93.777,55.696 93.952,55.76C94.126,55.823 94.325,55.855 94.547,55.855C94.801,55.855 95.031,55.817 95.237,55.742C95.443,55.666 95.618,55.545 95.76,55.379C95.903,55.212 96.014,54.996 96.094,54.73C96.173,54.465 96.213,54.137 96.213,53.749L96.213,50L95.249,50ZM97.391,52.773C97.391,53.352 97.466,53.836 97.617,54.225C97.768,54.613 97.962,54.927 98.2,55.165C98.438,55.403 98.708,55.571 99.009,55.67C99.311,55.77 99.612,55.819 99.914,55.819C100.096,55.819 100.255,55.805 100.39,55.777C100.525,55.75 100.635,55.716 100.723,55.676L100.723,58.413L101.687,58.52L101.687,50L100.806,50L100.806,50.607L100.782,50.607C100.759,50.559 100.715,50.494 100.651,50.411C100.588,50.327 100.501,50.244 100.39,50.161C100.278,50.077 100.14,50.006 99.973,49.946C99.807,49.887 99.612,49.857 99.39,49.857C99.12,49.857 98.864,49.911 98.623,50.018C98.381,50.125 98.168,50.295 97.986,50.53C97.803,50.764 97.659,51.065 97.552,51.434C97.444,51.803 97.391,52.249 97.391,52.773ZM99.652,50.714C99.803,50.714 99.937,50.734 100.056,50.774C100.175,50.813 100.278,50.863 100.366,50.922C100.453,50.982 100.527,51.043 100.586,51.107C100.646,51.17 100.691,51.226 100.723,51.273L100.723,54.796C100.635,54.851 100.534,54.899 100.419,54.939C100.304,54.978 100.159,54.998 99.985,54.998C99.763,54.998 99.555,54.96 99.36,54.885C99.166,54.81 98.997,54.685 98.855,54.51C98.712,54.336 98.599,54.109 98.515,53.832C98.432,53.554 98.39,53.213 98.39,52.808C98.39,52.412 98.424,52.081 98.492,51.815C98.559,51.549 98.652,51.335 98.771,51.172C98.89,51.01 99.025,50.893 99.176,50.821C99.327,50.75 99.485,50.714 99.652,50.714ZM109.743,55.712L108.006,50L107.149,50L106.566,51.999C106.478,52.285 106.405,52.551 106.346,52.797C106.286,53.042 106.248,53.277 106.233,53.499L106.209,53.499C106.193,53.277 106.149,53.039 106.078,52.785C106.006,52.531 105.923,52.265 105.828,51.987L105.173,50L104.352,50L102.555,55.712L103.591,55.712L104.448,52.475C104.527,52.174 104.596,51.894 104.656,51.636C104.715,51.378 104.749,51.135 104.757,50.904L104.781,50.904C104.805,51.135 104.854,51.375 104.93,51.624C105.005,51.874 105.09,52.146 105.185,52.44L105.804,54.308L105.376,55.712L106.375,55.712L107.244,52.559C107.331,52.233 107.411,51.928 107.482,51.642C107.553,51.357 107.593,51.111 107.601,50.904L107.625,50.904C107.641,51.111 107.68,51.359 107.744,51.648C107.807,51.938 107.883,52.241 107.97,52.559L108.815,55.712L109.743,55.712ZM111.599,50L110.635,50L110.635,55.712L111.599,55.712L111.599,50ZM111.123,57.092C110.925,57.092 110.766,57.156 110.647,57.283C110.528,57.41 110.469,57.576 110.469,57.783C110.469,57.981 110.528,58.144 110.647,58.271C110.766,58.397 110.925,58.461 111.123,58.461C111.314,58.461 111.469,58.397 111.588,58.271C111.707,58.144 111.766,57.981 111.766,57.783C111.766,57.576 111.707,57.41 111.588,57.283C111.469,57.156 111.314,57.092 111.123,57.092ZM115.586,54.867C115.562,54.883 115.51,54.903 115.431,54.927C115.352,54.95 115.245,54.962 115.11,54.962C114.808,54.962 114.572,54.881 114.402,54.718C114.231,54.556 114.11,54.379 114.039,54.189L114.039,50L113.075,50L113.075,55.712L113.956,55.712L113.956,54.939L113.979,54.939C114.019,55.05 114.071,55.159 114.134,55.266C114.198,55.373 114.277,55.468 114.372,55.551C114.467,55.635 114.58,55.7 114.711,55.748C114.842,55.795 114.999,55.819 115.181,55.819C115.316,55.819 115.425,55.807 115.509,55.783C115.592,55.76 115.657,55.74 115.705,55.724L115.586,54.867ZM118.977,54.927L117.728,54.927L117.728,51.761C117.728,51.357 117.78,51.081 117.883,50.934C117.986,50.787 118.16,50.714 118.406,50.714C118.549,50.714 118.672,50.734 118.775,50.774C118.878,50.813 118.954,50.849 119.001,50.881L119.132,50.107C119.092,50.075 118.997,50.026 118.847,49.958C118.696,49.891 118.494,49.857 118.24,49.857C117.748,49.857 117.379,49.994 117.133,50.268C116.887,50.541 116.764,50.996 116.764,51.63L116.764,54.927L116.074,54.927L116.074,55.569L116.764,55.712L116.871,57.307L117.728,57.307L117.728,55.712L119.096,55.712L118.977,54.927ZM122.536,54.558C122.472,54.629 122.357,54.726 122.19,54.849C122.024,54.972 121.806,55.034 121.536,55.034C121.282,55.034 121.088,54.974 120.953,54.855C120.818,54.736 120.751,54.593 120.751,54.427C120.751,54.213 120.812,54.036 120.935,53.897C121.058,53.758 121.246,53.61 121.5,53.451L121.857,53.237C122.246,53.007 122.551,52.759 122.774,52.493C122.996,52.227 123.107,51.884 123.107,51.464C123.107,51.012 122.95,50.631 122.637,50.321C122.323,50.012 121.873,49.857 121.286,49.857C121.056,49.857 120.854,49.881 120.679,49.929C120.505,49.976 120.352,50.032 120.221,50.095C120.09,50.159 119.981,50.228 119.894,50.303C119.806,50.379 119.735,50.448 119.68,50.512L120.144,51.273C120.191,51.226 120.249,51.17 120.316,51.107C120.384,51.043 120.465,50.982 120.56,50.922C120.655,50.863 120.762,50.813 120.881,50.774C121,50.734 121.139,50.714 121.298,50.714C121.584,50.714 121.802,50.778 121.952,50.904C122.103,51.031 122.179,51.186 122.179,51.368C122.179,51.503 122.161,51.62 122.125,51.72C122.089,51.819 122.036,51.908 121.964,51.987C121.893,52.067 121.806,52.142 121.703,52.213C121.599,52.285 121.48,52.364 121.346,52.451L120.989,52.678C120.632,52.908 120.352,53.15 120.15,53.403C119.947,53.657 119.846,53.983 119.846,54.379C119.846,54.593 119.888,54.79 119.971,54.968C120.054,55.147 120.171,55.301 120.322,55.432C120.473,55.563 120.649,55.666 120.852,55.742C121.054,55.817 121.27,55.855 121.5,55.855C121.722,55.855 121.913,55.833 122.071,55.789C122.23,55.746 122.367,55.69 122.482,55.623C122.597,55.555 122.692,55.488 122.768,55.42C122.843,55.353 122.904,55.295 122.952,55.248L122.536,54.558ZM127.415,54.605C127.391,54.629 127.353,54.665 127.302,54.712C127.25,54.76 127.184,54.808 127.105,54.855C127.026,54.903 126.931,54.945 126.82,54.98C126.708,55.016 126.582,55.034 126.439,55.034C126.232,55.034 126.04,54.996 125.862,54.921C125.683,54.845 125.528,54.724 125.397,54.558C125.267,54.391 125.163,54.175 125.088,53.909C125.013,53.643 124.975,53.32 124.975,52.939C124.975,52.519 125.009,52.166 125.076,51.88C125.144,51.595 125.237,51.367 125.356,51.196C125.475,51.025 125.62,50.902 125.79,50.827C125.961,50.752 126.149,50.714 126.355,50.714C126.649,50.714 126.873,50.766 127.028,50.869C127.183,50.972 127.292,51.055 127.355,51.119L127.748,50.452C127.708,50.405 127.65,50.347 127.575,50.28C127.5,50.212 127.403,50.147 127.284,50.083C127.165,50.02 127.02,49.966 126.849,49.923C126.679,49.879 126.482,49.857 126.26,49.857C125.943,49.857 125.645,49.909 125.368,50.012C125.09,50.115 124.848,50.286 124.642,50.524C124.436,50.762 124.273,51.071 124.154,51.452C124.035,51.833 123.975,52.305 123.975,52.868C123.975,53.415 124.047,53.879 124.19,54.26C124.332,54.641 124.519,54.948 124.749,55.182C124.979,55.417 125.235,55.587 125.516,55.694C125.798,55.801 126.082,55.855 126.367,55.855C126.582,55.855 126.77,55.835 126.933,55.795C127.095,55.756 127.234,55.706 127.349,55.647C127.464,55.587 127.559,55.524 127.635,55.456C127.71,55.389 127.772,55.331 127.819,55.284L127.415,54.605ZM131.948,50L131.948,53.677C131.948,54.161 131.867,54.508 131.705,54.718C131.542,54.929 131.294,55.034 130.961,55.034C130.675,55.034 130.437,54.962 130.247,54.82C130.056,54.677 129.906,54.538 129.795,54.403L129.795,50L128.831,50L128.831,58.413L129.795,58.52L129.795,55.129L129.818,55.129C129.85,55.176 129.9,55.24 129.967,55.319C130.035,55.399 130.128,55.478 130.247,55.557C130.366,55.637 130.511,55.706 130.681,55.766C130.852,55.825 131.052,55.855 131.282,55.855C131.782,55.855 132.179,55.692 132.472,55.367C132.766,55.042 132.912,54.502 132.912,53.749L132.912,50L131.948,50ZM134.019,51.452C134.019,51.785 134.083,52.063 134.209,52.285C134.336,52.507 134.507,52.687 134.721,52.826C134.935,52.965 135.187,53.064 135.477,53.124C135.766,53.183 136.074,53.213 136.399,53.213L136.696,53.213L136.696,53.76C136.696,54.244 136.611,54.578 136.441,54.76C136.27,54.943 136.03,55.034 135.721,55.034C135.435,55.034 135.197,54.972 135.007,54.849C134.816,54.726 134.666,54.617 134.555,54.522L134.15,55.165C134.213,55.228 134.295,55.3 134.394,55.379C134.493,55.458 134.614,55.533 134.757,55.605C134.9,55.676 135.062,55.736 135.245,55.783C135.427,55.831 135.633,55.855 135.863,55.855C136.451,55.855 136.895,55.692 137.196,55.367C137.498,55.042 137.649,54.518 137.649,53.796L137.649,51.19C137.649,50.944 137.656,50.704 137.672,50.47C137.688,50.236 137.704,50.079 137.72,50L136.804,50L136.768,50.631L136.744,50.631C136.712,50.559 136.665,50.478 136.601,50.387C136.538,50.295 136.458,50.212 136.363,50.137C136.268,50.062 136.153,49.996 136.018,49.941C135.883,49.885 135.725,49.857 135.542,49.857C135.328,49.857 135.128,49.897 134.941,49.976C134.755,50.056 134.592,50.167 134.453,50.309C134.315,50.452 134.207,50.621 134.132,50.815C134.057,51.01 134.019,51.222 134.019,51.452ZM135.744,50.678C135.879,50.678 135.998,50.698 136.101,50.738C136.205,50.778 136.294,50.825 136.369,50.881C136.445,50.936 136.508,50.998 136.56,51.065C136.611,51.133 136.657,51.19 136.696,51.238L136.696,52.499L136.387,52.487C135.927,52.471 135.578,52.392 135.34,52.249C135.102,52.106 134.983,51.876 134.983,51.559C134.983,51.265 135.05,51.045 135.185,50.899C135.32,50.752 135.507,50.678 135.744,50.678ZM141.504,54.927L140.338,54.927L140.338,50L139.374,50L139.374,54.927L138.684,54.927L138.684,55.569L139.374,55.7L139.374,56.843C139.374,57.152 139.418,57.418 139.505,57.64C139.592,57.862 139.707,58.044 139.85,58.187C139.993,58.33 140.159,58.433 140.35,58.497C140.54,58.56 140.743,58.592 140.957,58.592C141.163,58.592 141.338,58.564 141.48,58.509C141.623,58.453 141.718,58.409 141.766,58.378L141.564,57.58C141.516,57.612 141.449,57.646 141.361,57.682C141.274,57.717 141.167,57.735 141.04,57.735C140.81,57.735 140.635,57.664 140.516,57.521C140.397,57.378 140.338,57.116 140.338,56.735L140.338,55.712L141.623,55.712L141.504,54.927ZM144.896,54.927L143.646,54.927L143.646,51.761C143.646,51.357 143.698,51.081 143.801,50.934C143.904,50.787 144.079,50.714 144.324,50.714C144.467,50.714 144.59,50.734 144.693,50.774C144.796,50.813 144.872,50.849 144.919,50.881L145.05,50.107C145.011,50.075 144.915,50.026 144.765,49.958C144.614,49.891 144.412,49.857 144.158,49.857C143.666,49.857 143.297,49.994 143.051,50.268C142.805,50.541 142.682,50.996 142.682,51.63L142.682,54.927L141.992,54.927L141.992,55.569L142.682,55.712L142.789,57.307L143.646,57.307L143.646,55.712L145.015,55.712L144.896,54.927Z" style="fill-rule:nonzero;"/>
        </g>
    </g>
</svg>
