<svg xmlns="http://www.w3.org/2000/svg" xmlns:xlink="http://www.w3.org/1999/xlink" width="108.202" height="114.558" viewBox="0 0 108.202 114.558"><defs><style>.a{fill:none;}.b{clip-path:url(#a);}.c{fill:#fff;}.d{fill:#84a102;}.e{fill:#003766;}</style><clipPath id="a"><rect class="a" width="108.202" height="114.558"/></clipPath></defs><g class="b"><path class="c" d="M9.884,0V61.708a24.172,24.172,0,0,0,0,39v13.855H99.406V99.851a24.14,24.14,0,0,0,0-37.272V0Z"/><path class="d" d="M114.436,87.488A21.524,21.524,0,0,0,95.844,98.171l10.923,31.137a21.6,21.6,0,1,0,7.669-41.82" transform="translate(-30.509 -27.849)"/><path class="d" d="M76.077,69.836,67.83,93.37a24.029,24.029,0,0,1-.2,20.656c9.043,1.824,18.379,6.175,27,8.708Z" transform="translate(-21.526 -22.23)"/><path class="d" d="M25.535,87.484A21.638,21.638,0,0,0,13.486,127.04v-.018s12.417-8.2,26.074-8.215a36.474,36.474,0,0,1,5.043.376,21.653,21.653,0,0,0-19.068-31.7" transform="translate(-1.266 -27.847)"/><path class="e" d="M18.074,3.621V61.309a24.248,24.248,0,0,1,32.26,7.839L59.06,44.267a1.327,1.327,0,0,1,2.506,0l8.417,23.995A24.277,24.277,0,0,1,102.79,61.99V3.621Zm18.39,9.458a8.051,8.051,0,0,1,1.329.117,8.2,8.2,0,0,1,1.228.309,6.654,6.654,0,0,1,1.023.426,2.523,2.523,0,0,1,.6.391,1.043,1.043,0,0,1,.186.272,1.422,1.422,0,0,1,.085.306,3.056,3.056,0,0,1,.05.461c.011.186.019.423.019.7,0,.309,0,.57-.019.783a3.306,3.306,0,0,1-.066.527.6.6,0,0,1-.155.29.349.349,0,0,1-.256.1,1.114,1.114,0,0,1-.495-.224c-.229-.149-.517-.317-.852-.493a7.462,7.462,0,0,0-1.159-.476,4.736,4.736,0,0,0-1.464-.205,3.128,3.128,0,0,0-1.073.152,2.165,2.165,0,0,0-.767.479,1.77,1.77,0,0,0-.461.7,2.591,2.591,0,0,0-.155.886,2.107,2.107,0,0,0,.341,1.193,3.374,3.374,0,0,0,.9.887,9.663,9.663,0,0,0,1.3.732c.479.229.967.477,1.464.733A13.942,13.942,0,0,1,39.531,23a6.09,6.09,0,0,1,1.278,1.161,5.616,5.616,0,0,1,.9,1.6,6.177,6.177,0,0,1,.341,2.165,7,7,0,0,1-.546,2.862,5.905,5.905,0,0,1-1.483,2.063,6.19,6.19,0,0,1-2.181,1.225,8.439,8.439,0,0,1-2.676.426,8.628,8.628,0,0,1-1.789-.186,9.419,9.419,0,0,1-1.464-.426,6.114,6.114,0,0,1-1.057-.511,2.967,2.967,0,0,1-.6-.477,1.246,1.246,0,0,1-.271-.6,5.927,5.927,0,0,1-.085-1.126c0-.33.013-.61.032-.834a2.424,2.424,0,0,1,.1-.545.582.582,0,0,1,.17-.29.361.361,0,0,1,.237-.1,1.185,1.185,0,0,1,.58.272,9.762,9.762,0,0,0,.937.58,8.071,8.071,0,0,0,1.38.578,5.84,5.84,0,0,0,1.843.274,3.914,3.914,0,0,0,1.243-.189,2.61,2.61,0,0,0,.919-.511,2.155,2.155,0,0,0,.58-.834,2.9,2.9,0,0,0,.205-1.108,2.1,2.1,0,0,0-.341-1.211,3.62,3.62,0,0,0-.9-.884,9.031,9.031,0,0,0-1.262-.735c-.468-.229-.95-.476-1.449-.732a12.8,12.8,0,0,1-1.449-.868,6.043,6.043,0,0,1-1.262-1.158,5.793,5.793,0,0,1-.9-1.619,6.387,6.387,0,0,1-.341-2.215,6.431,6.431,0,0,1,.5-2.609,5.318,5.318,0,0,1,1.329-1.875,5.544,5.544,0,0,1,1.995-1.108,7.854,7.854,0,0,1,2.421-.373m31,.272c.453,0,.809.018,1.073.034a1.886,1.886,0,0,1,.6.1.491.491,0,0,1,.274.256,1.956,1.956,0,0,1,.12.476l3.254,15.834H72.8l3.392-15.73a1.87,1.87,0,0,1,.155-.495.631.631,0,0,1,.322-.29,1.981,1.981,0,0,1,.615-.136,9.807,9.807,0,0,1,1.023-.05c.458,0,.834.013,1.108.034a1.869,1.869,0,0,1,.629.136.654.654,0,0,1,.324.29,1.894,1.894,0,0,1,.155.511l3.509,15.73h.035l3.254-15.78a2.323,2.323,0,0,1,.119-.444.556.556,0,0,1,.272-.29,1.744,1.744,0,0,1,.58-.136,10.167,10.167,0,0,1,1.057-.05,8.6,8.6,0,0,1,.972.05.782.782,0,0,1,.511.205.716.716,0,0,1,.136.527,6.5,6.5,0,0,1-.136.937L86.549,33.051a1.844,1.844,0,0,1-.237.615.967.967,0,0,1-.461.357,2.719,2.719,0,0,1-.767.154c-.317.027-.721.051-1.211.051-.546,0-.98-.025-1.31-.051a2.686,2.686,0,0,1-.785-.154.85.85,0,0,1-.426-.357,2.117,2.117,0,0,1-.187-.615l-2.982-13.1h-.035l-2.812,13.1a1.97,1.97,0,0,1-.2.6.849.849,0,0,1-.408.359,2.373,2.373,0,0,1-.767.17c-.322.027-.735.051-1.262.051-.556,0-1-.025-1.329-.051a2.686,2.686,0,0,1-.785-.154.841.841,0,0,1-.426-.357,2.385,2.385,0,0,1-.221-.615l-4.226-18.03a5.284,5.284,0,0,1-.136-.9.647.647,0,0,1,.17-.511.929.929,0,0,1,.578-.205c.274-.027.655-.05,1.143-.05m-19.41.1h4.772a12.034,12.034,0,0,1,4.207.65,7.541,7.541,0,0,1,2.932,1.907,8.387,8.387,0,0,1,1.789,3.153,13.769,13.769,0,0,1,.631,4.33,15.444,15.444,0,0,1-.682,4.857,8.414,8.414,0,0,1-1.909,3.307,7.549,7.549,0,0,1-3.049,1.875,13.471,13.471,0,0,1-4.261.6H48.052a1.11,1.11,0,0,1-.8-.309,1.383,1.383,0,0,1-.325-1.023V14.784a1.383,1.383,0,0,1,.325-1.023,1.11,1.11,0,0,1,.8-.309m2.642,3.291V30.8h1.96a6.8,6.8,0,0,0,2.622-.444,4.362,4.362,0,0,0,1.774-1.345,6.105,6.105,0,0,0,1.073-2.25,12.5,12.5,0,0,0,.341-3.136,11.467,11.467,0,0,0-.306-2.727,6.143,6.143,0,0,0-.988-2.2,4.7,4.7,0,0,0-1.757-1.449,6.489,6.489,0,0,0-2.812-.511Z" transform="translate(-5.753 -1.153)"/><path class="e" d="M17.914,145.725s12.433-8.2,26.091-8.218c15.14-.016,32.028,11.182,45.475,11.469a23.054,23.054,0,0,0,13.12-3.72l.019,10.371H17.962Z" transform="translate(-5.702 -43.77)"/></g></svg>